<svg xmlns="http://www.w3.org/2000/svg" width="15" height="15" viewBox="0 0 15 15">
  <defs>
    <style>
      .cls-1 {
        fill: #191f21;
        fill-rule: evenodd;
      }
    </style>
  </defs>
  <path id="icon" class="cls-1" d="M914.428,7992v-5.66c0-1.37-.553-2.16-1.42-2.16a2.158,2.158,0,0,0-1.838.99,2.135,2.135,0,0,0-.2.93v5.87L908,7992v-11l2.6,0.18,0.149,1.88h0.064a3.575,3.575,0,0,1,3.209-1.71c2.122,0,3.99,1.44,3.99,4.57v6.05ZM903,7981h3v11l-3-.03V7981Zm1.711-.7a1.656,1.656,0,1,1,1.743-1.66A1.629,1.629,0,0,1,904.711,7980.3Z" transform="translate(-903 -7977)"/>
</svg>
